<svg width="100%" height="100%" viewBox="0 0 1439 321" fill="none" xmlns="http://www.w3.org/2000/svg">
<g clip-path="url(#clip0_67_2)">
<path d="M1438.67 320.688L1398.67 288.688C1358.67 256.688 1278.67 192.688 1198.67 165.988C1118.67 139.688 1038.67 149.688 958.669 176.688C878.669 203.688 798.669 245.688 718.669 245.988C638.669 245.688 558.669 203.688 478.669 171.388C398.669 139.688 318.669 117.688 238.669 123.388C158.669 128.688 78.6689 160.688 38.6689 176.688L-1.33105 192.688L-1.33105 0.687622L38.6689 0.687622C78.6689 0.687622 158.669 0.687622 238.669 0.687622C318.669 0.687622 398.669 0.687622 478.669 0.687622C558.669 0.687622 638.669 0.687622 718.669 0.687622C798.669 0.687622 878.669 0.687622 958.669 0.687622C1038.67 0.687622 1118.67 0.687622 1198.67 0.687622C1278.67 0.687622 1358.67 0.687622 1398.67 0.687622H1438.67L1438.67 320.688Z" fill="url(#paint0_linear_67_2)"/>
</g>
<defs>
<linearGradient id="paint0_linear_67_2" x1="718.669" y1="320.688" x2="718.669" y2="0.687622" gradientUnits="userSpaceOnUse">
<stop stop-color="#3282B8" stop-opacity="0"/>
<stop offset="0.296527" stop-color="#3282B8" stop-opacity="0.277178"/>
<stop offset="0.900694" stop-color="#3282B8"/>
</linearGradient>
<clipPath id="clip0_67_2">
<rect width="1440" height="320" fill="white" transform="translate(1438.67 320.688) rotate(-180)"/>
</clipPath>
</defs>
</svg>
