<svg width="266" height="201" viewBox="0 0 266 201" fill="none" xmlns="http://www.w3.org/2000/svg">
<path d="M41 33L3 172L52 195L76.5 105L132 157.5L190.5 105L224 195L263 172L224 33L165 13L177.5 33L132 85L91 33V13L41 33Z" fill="#0F4C75" stroke="#0F4C75" stroke-width="5"/>
<path d="M131.5 83.5L107 95.5C107.348 102.214 109.249 104.25 114 106.5L137 96.5C153.287 99.6317 160.829 105.854 172.5 122" stroke="#0F4C75" stroke-width="5"/>
<path d="M99.6388 119.91L113.937 110.66C117.559 112.652 117.564 114.79 117.442 118.673L107.431 125.954L121.586 121.727C127.057 124.06 125.877 125.64 123.236 128.493L115.669 133.099C118.936 131.17 121.018 130.956 124.709 132.716C130.103 135.504 129.267 136.303 126.614 137.498C126.039 139.842 125.187 140.718 123.496 142.138C126.046 140.207 129.5 141.5 130.198 140.984C130.496 140.764 131.778 142.464 132.91 143.94C132.571 141.231 132.358 139.95 133.91 143.478C135.682 147.504 134.431 145.924 132.91 143.94C133.246 146.622 133.705 150.703 132.697 152.901L99.6388 119.91Z" fill="#0F4C75" stroke="#0F4C75" stroke-width="5"/>
<path d="M3 172.942L41.7939 26.4543L90.5485 4L94.7424 26.4543L136.682 77.7784L107.848 90.0748L114.664 103.44L142.973 98.0942C157.834 94.2932 164.142 104.262 176 118.41L142.973 154.23V137.657L133.536 133.914L129.342 118.41L123.052 113.598L114.664 103.44L97.8879 118.41L77.4424 98.0942L53.3273 197L3 172.942Z" fill="#7BDAFF"/>
<path d="M114.664 103.44L107.848 90.0748L136.682 77.7784L94.7424 26.4543L90.5485 4L41.7939 26.4543L3 172.942L53.3273 197L77.4424 98.0942L97.8879 118.41L114.664 103.44ZM114.664 103.44L142.973 98.0942C157.834 94.2932 164.142 104.262 176 118.41L142.973 154.23V137.657L133.536 133.914L129.342 118.41L123.052 113.598L114.664 103.44Z" stroke="#7BDAFF" stroke-width="5"/>
<path d="M147.5 156.5C143.641 160.467 141.055 160.828 136 159.5L144 144.5L157.304 129.866L156.5 129L157.554 129.59L169 117C167.574 120.03 168.92 121.323 172 123.5C172.534 126.43 172.328 128.627 172 132.5C172.073 134.528 171.81 135.503 169 136L157.554 129.59L157.304 129.866L163 136C165.233 137.938 165.878 139.222 166 142C164.931 144.067 164.267 144.538 163 144.5L151 139L156.5 144.5C159.347 148.562 158.689 150.251 156.5 153C154.546 154.163 153.386 154.425 151 153L144 144.5L147.5 156.5Z" fill="#7BDAFF"/>
<path d="M144 144.5L147.5 156.5C143.641 160.467 141.055 160.828 136 159.5L144 144.5ZM144 144.5L151 153C153.386 154.425 154.546 154.163 156.5 153C158.689 150.251 159.347 148.562 156.5 144.5L151 139L163 144.5C164.267 144.538 164.931 144.067 166 142C165.878 139.222 165.233 137.938 163 136L156.5 129L169 136C171.81 135.503 172.073 134.528 172 132.5C172.328 128.627 172.534 126.43 172 123.5C168.92 121.323 167.574 120.03 169 117L144 144.5Z" stroke="#7BDAFF" stroke-width="5"/>
<path d="M93.5 125L74 105.5L82 100L98 121L93.5 125Z" fill="#7BDAFF" stroke="#7BDAFF"/>
</svg>
